<?xml version="1.0" encoding="UTF-8"?>
<svg id="Layer_1" data-name="Layer 1" xmlns="http://www.w3.org/2000/svg" viewBox="0 0 171.9 66.52">
  <defs>
    <style>
      .cls-1 {
        fill-rule: evenodd;
      }

      .cls-1, .cls-2 {
        fill: #02080b;
      }

      .cls-3 {
        fill: #fff;
        stroke: #000;
        stroke-miterlimit: 10;
        stroke-width: .25px;
      }
    </style>
  </defs>
  <g id="Layer_3" data-name="Layer 3">
    <circle class="cls-3" cx="86.04" cy="33.26" r="33.14"/>
  </g>
  <g id="Layer_1-2" data-name="Layer 1">
    <g id="Layer_15" data-name="Layer 15">
      <path class="cls-1" d="M103.56,12.49c.93-.63,2.19-.39,2.82.48,1.8,2.68,2.91,5.92,2.91,9.41s-1.11,6.72-2.91,9.41c-.63.93-1.89,1.18-2.82.48-.93-.63-1.16-1.9-.48-2.86,1.41-1.97,2.19-4.42,2.19-7.03s-.78-5.06-2.19-7.03c-.63-.93-.39-2.22.48-2.86Z"/>
    </g>
    <g id="Layer_14" data-name="Layer 14">
      <path class="cls-2" d="M95.09,34.63l-2.12.09c-6.91,0-12.41-5.53-12.41-12.34s5.57-12.25,12.57-12.34c1.64,0,3.23.3,4.64.93,1.02.39,2.19,0,2.66-1.11.39-1.02,0-2.22-1.11-2.68-1.89-.79-3.91-1.18-6.13-1.27h-22.53c-2.59,0-4.71,2.13-4.71,4.76v45.17c0,2.61,2.12,4.76,4.71,4.76h24.41c7.16,0,12.87-5.87,12.87-12.97s-5.8-12.97-12.87-12.97h0l.02-.04Z"/>
    </g>
    <g id="Layer_13" data-name="Layer 13">
      <path class="cls-2" d="M93.02,13.67c4.86,0,8.8,3.95,8.8,8.85s-3.93,8.85-8.8,8.85-8.8-3.95-8.8-8.85,3.91-8.85,8.8-8.85ZM89.59,28.07s-.16.05-.16.16c0,.09.05.16.16.16s.16-.05.16-.16-.05-.16-.16-.16ZM90.31,28.07s-.16.05-.16.16c0,.09.05.16.16.16.09,0,.16-.05.16-.16,0-.09-.05-.16-.16-.16ZM91,28.07s-.16.05-.16.16c0,.09.05.16.16.16s.16-.05.16-.16c0-.09-.05-.16-.16-.16ZM93.06,28.07s-.16.05-.16.16.05.16.16.16c.09,0,.16-.05.16-.16s-.05-.16-.16-.16ZM91.72,28.07s-.16.05-.16.16c0,.09.05.16.16.16.09,0,.16-.05.16-.16,0-.09-.05-.16-.16-.16ZM92.42,28.07s-.16.05-.16.16c0,.09.05.16.16.16s.16-.05.16-.16c0-.09-.05-.16-.16-.16ZM93.75,28.07s-.16.05-.16.16c0,.09.05.16.16.16.09,0,.16-.05.16-.16,0-.09-.05-.16-.16-.16ZM94.47,28.07s-.16.05-.16.16c0,.09.05.16.16.16.09,0,.16-.05.16-.16,0-.09-.05-.16-.16-.16ZM95.16,28.07s-.16.05-.16.16c0,.09.05.16.16.16.09,0,.16-.05.16-.16,0-.09-.05-.16-.16-.16ZM95.88,28.07s-.16.05-.16.16c0,.09.05.16.16.16.09,0,.16-.05.16-.16,0-.09-.05-.16-.16-.16ZM96.51,28.07s-.16.05-.16.16c0,.09.05.16.16.16.09,0,.16-.05.16-.16,0-.09-.05-.16-.16-.16ZM89.29,27.44s-.16.05-.16.16.05.16.16.16c.09,0,.16-.05.16-.16s-.05-.16-.16-.16ZM89.98,27.44s-.16.05-.16.16.05.16.16.16c.09,0,.16-.05.16-.16s-.05-.16-.16-.16ZM90.61,27.44s-.16.05-.16.16c0,.09.05.16.16.16.09,0,.16-.05.16-.16,0-.09-.05-.16-.16-.16ZM91.31,27.44s-.16.05-.16.16.05.16.16.16c.09,0,.16-.05.16-.16s-.05-.16-.16-.16ZM92.02,27.44s-.16.05-.16.16c0,.09.05.16.16.16.09,0,.16-.05.16-.16s-.05-.16-.16-.16ZM92.74,27.44s-.16.05-.16.16c0,.09.05.16.16.16s.16-.05.16-.16-.05-.16-.16-.16ZM93.45,27.44s-.16.05-.16.16c0,.09.05.16.16.16.09,0,.16-.05.16-.16,0-.09-.05-.16-.16-.16ZM94.13,27.44s-.16.05-.16.16c0,.09.05.16.16.16.09,0,.16-.05.16-.16,0-.09-.05-.16-.16-.16ZM94.77,27.44s-.16.05-.16.16.05.16.16.16c.09,0,.16-.05.16-.16,0-.09-.05-.16-.16-.16ZM95.49,27.44s-.16.05-.16.16c0,.09.05.16.16.16.09,0,.16-.05.16-.16s-.05-.16-.16-.16ZM96.18,27.44s-.16.05-.16.16.05.16.16.16c.09,0,.16-.05.16-.16s-.05-.16-.16-.16ZM96.88,27.44s-.16.05-.16.16c0,.09.05.16.16.16.09,0,.16-.05.16-.16,0-.09-.05-.16-.16-.16ZM89.59,26.73s-.16.05-.16.16c0,.09.05.16.16.16s.16-.05.16-.16-.05-.16-.16-.16ZM90.31,26.73s-.16.05-.16.16c0,.09.05.16.16.16.09,0,.16-.05.16-.16,0-.09-.05-.16-.16-.16ZM91,26.73s-.16.05-.16.16c0,.09.05.16.16.16s.16-.05.16-.16c0-.09-.05-.16-.16-.16ZM91.72,26.73s-.16.09-.16.16.05.16.16.16c.09,0,.16-.05.16-.16,0-.09-.05-.16-.16-.16ZM92.42,26.73s-.16.05-.16.16c0,.09.05.16.16.16s.16-.05.16-.16c0-.09-.05-.16-.16-.16ZM93.06,26.73s-.16.05-.16.16c0,.09.05.16.16.16.09,0,.16-.05.16-.16,0-.09-.05-.16-.16-.16ZM93.75,26.73s-.16.05-.16.16.05.16.16.16.16-.05.16-.16c0-.09-.05-.16-.16-.16ZM94.47,26.73s-.16.09-.16.16.05.16.16.16c.09,0,.16-.05.16-.16,0-.09-.05-.16-.16-.16ZM95.16,26.73s-.16.05-.16.16c0,.09.05.16.16.16s.16-.05.16-.16-.05-.16-.16-.16ZM95.88,26.73s-.16.05-.16.16.05.16.16.16c.09,0,.16-.05.16-.16,0-.09-.05-.16-.16-.16ZM96.51,26.73s-.16.05-.16.16c0,.09.05.16.16.16s.16-.05.16-.16-.05-.16-.16-.16ZM89.29,26.03s-.16.05-.16.16.05.16.16.16c.09,0,.16-.05.16-.16,0-.09-.05-.16-.16-.16ZM89.98,26.03s-.16.05-.16.16.05.16.16.16c.09,0,.16-.05.16-.16,0-.09-.05-.16-.16-.16ZM90.61,26.03s-.16.05-.16.16c0,.09.05.16.16.16.09,0,.16-.05.16-.16,0-.09-.05-.16-.16-.16ZM91.31,26.03s-.16.05-.16.16c0,.09.05.16.16.16.09,0,.16-.05.16-.16,0-.09-.05-.16-.16-.16ZM92.02,26.03s-.16.05-.16.16c0,.09.05.16.16.16.09,0,.16-.05.16-.16s-.05-.16-.16-.16ZM92.74,26.03s-.16.05-.16.16c0,.09.05.16.16.16s.16-.05.16-.16-.05-.16-.16-.16ZM93.45,26.03s-.16.05-.16.16c0,.09.05.16.16.16.09,0,.16-.05.16-.16,0-.09-.05-.16-.16-.16ZM94.13,26.03s-.16.05-.16.16c0,.09.05.16.16.16s.16-.05.16-.16c0-.09-.05-.16-.16-.16ZM94.77,26.03s-.16.05-.16.16c0,.09.05.16.16.16.09,0,.16-.05.16-.16,0-.09-.05-.16-.16-.16ZM95.49,26.03s-.16.05-.16.16c0,.09.05.16.16.16.09,0,.16-.05.16-.16s-.05-.16-.16-.16ZM96.18,26.03s-.16.05-.16.16c0,.09.05.16.16.16.09,0,.16-.05.16-.16,0-.09-.05-.16-.16-.16ZM96.88,26.03s-.16.05-.16.16c0,.09.05.16.16.16s.16-.05.16-.16c0-.09-.05-.16-.16-.16ZM89.59,25.3s-.16.05-.16.16c0,.09.05.16.16.16s.16-.05.16-.16c0-.09-.05-.16-.16-.16ZM90.31,25.3s-.16.05-.16.16c0,.09.05.16.16.16.09,0,.16-.05.16-.16,0-.09-.05-.16-.16-.16ZM91,25.3s-.16.05-.16.16c0,.09.05.16.16.16s.16-.05.16-.16c0-.09-.05-.16-.16-.16ZM91.72,25.3s-.16.05-.16.16c0,.09.05.16.16.16.09,0,.16-.05.16-.16,0-.09-.05-.16-.16-.16ZM92.42,25.3s-.16.05-.16.16c0,.09.05.16.16.16s.16-.05.16-.16c0-.09-.05-.16-.16-.16ZM93.06,25.3s-.16.05-.16.16c0,.09.05.16.16.16.09,0,.16-.09.16-.16s-.05-.16-.16-.16ZM93.75,25.3s-.16.05-.16.16c0,.09.05.16.16.16.09,0,.16-.05.16-.16,0-.09-.05-.16-.16-.16ZM94.47,25.3s-.16.05-.16.16c0,.09.05.16.16.16.09,0,.16-.05.16-.16,0-.09-.05-.16-.16-.16ZM95.16,25.3s-.16.05-.16.16c0,.09.05.16.16.16.09,0,.16-.09.16-.16s-.05-.16-.16-.16ZM95.88,25.3s-.16.05-.16.16.05.16.16.16c.09,0,.16-.05.16-.16,0-.09-.05-.16-.16-.16ZM96.51,25.3s-.16.05-.16.16c0,.09.05.16.16.16.09,0,.16-.05.16-.16s-.05-.16-.16-.16ZM89.29,24.6s-.16.05-.16.16c0,.09.05.16.16.16.09,0,.16-.05.16-.16,0-.09-.05-.16-.16-.16ZM89.98,24.6s-.16.05-.16.16c0,.09.05.16.16.16.09,0,.16-.05.16-.16,0-.09-.05-.16-.16-.16ZM90.61,24.6s-.16.05-.16.16c0,.09.05.16.16.16.09,0,.16-.05.16-.16,0-.09-.05-.16-.16-.16ZM91.31,24.6s-.16.05-.16.16c0,.09.05.16.16.16.09,0,.16-.05.16-.16,0-.09-.05-.16-.16-.16ZM92.02,24.6s-.16.05-.16.16c0,.09.05.16.16.16.09,0,.16-.05.16-.16,0-.09-.05-.16-.16-.16ZM92.74,24.6s-.16.05-.16.16c0,.09.05.16.16.16s.16-.05.16-.16c0-.09-.05-.16-.16-.16ZM93.45,24.6s-.16.05-.16.16c0,.09.05.16.16.16.09,0,.16-.05.16-.16,0-.09-.05-.16-.16-.16ZM94.13,24.6s-.16.05-.16.16c0,.09.05.16.16.16.09,0,.16-.05.16-.16,0-.09-.05-.16-.16-.16ZM94.77,24.6s-.16.05-.16.16c0,.09.05.16.16.16.09,0,.16-.05.16-.16,0-.09-.05-.16-.16-.16ZM95.49,24.6s-.16.05-.16.16c0,.09.05.16.16.16.09,0,.16-.05.16-.16,0-.09-.05-.16-.16-.16ZM96.18,24.6s-.16.05-.16.16c0,.09.05.16.16.16.09,0,.16-.05.16-.16,0-.09-.05-.16-.16-.16ZM96.88,24.6s-.16.05-.16.16c0,.09.05.16.16.16.09,0,.16-.05.16-.16,0-.09-.05-.16-.16-.16ZM89.59,23.96s-.16.05-.16.16c0,.09.05.16.16.16.09,0,.16-.05.16-.16,0-.09-.05-.16-.16-.16ZM90.31,23.96s-.16.05-.16.16c0,.09.05.16.16.16.09,0,.16-.05.16-.16,0-.09-.05-.16-.16-.16ZM91,23.96s-.16.05-.16.16c0,.09.05.16.16.16.09,0,.16-.05.16-.16,0-.09-.05-.16-.16-.16ZM91.72,23.96s-.16.05-.16.16c0,.09.05.16.16.16.09,0,.16-.05.16-.16,0-.09-.05-.16-.16-.16ZM92.42,23.96s-.16.05-.16.16c0,.09.05.16.16.16s.16-.05.16-.16c0-.09-.05-.16-.16-.16ZM93.06,23.96s-.16.05-.16.16c0,.09.05.16.16.16.09,0,.16-.05.16-.16,0-.09-.05-.16-.16-.16ZM93.75,23.96s-.16.05-.16.16c0,.09.05.16.16.16s.16-.05.16-.16c0-.09-.05-.16-.16-.16ZM94.47,23.96s-.16.05-.16.16c0,.09.05.16.16.16.09,0,.16-.05.16-.16,0-.09-.05-.16-.16-.16ZM95.16,23.96s-.16.05-.16.16c0,.09.05.16.16.16.09,0,.16-.05.16-.16s-.05-.16-.16-.16ZM95.88,23.96s-.16.05-.16.16c0,.09.05.16.16.16.09,0,.16-.05.16-.16,0-.09-.05-.16-.16-.16ZM96.51,23.96s-.16.05-.16.16c0,.09.05.16.16.16.09,0,.16-.05.16-.16,0-.09-.05-.16-.16-.16ZM87.49,22.94s-.09.16-.09.3c0,.16.09.3.09.3h10.98s.09-.16.09-.3-.09-.3-.09-.3h-10.98ZM89.68,16.68c-.3,0-.55.25-.55.55v5.31h7.93v-2.54c0-.16,0-.3-.16-.39l-2.82-2.77s-.23-.16-.39-.16h-4.02ZM94.61,21.34c.16,0,.3.16.3.3,0,.16-.16.3-.3.3h-3.77c-.16,0-.3-.16-.3-.3,0-.16.16-.3.3-.3h3.77ZM94.61,19.77c.16,0,.3.16.3.3,0,.16-.16.3-.3.3h-3.77c-.16,0-.3-.16-.3-.3s.16-.3.3-.3h3.77Z"/>
    </g>
  </g>
</svg>